/* XPM */
static char *_20955953f4a4ee1a84c14d06a29a7d4b2UTNBa6qi1KvZZ8[] = {
/* columns rows colors chars-per-pixel */
"50 50 163 2 ",
"   c None",
".  c #6E3C07",
"X  c #6E3C08",
"o  c #723E07",
"O  c #7A3A07",
"+  c #713F09",
"@  c #754207",
"#  c #794507",
"$  c #7E4907",
"%  c #74430C",
"&  c #79470C",
"*  c #744311",
"=  c #784915",
"-  c #794C1C",
";  c #803707",
":  c #8B3408",
">  c #923508",
",  c #A12F08",
"<  c #A92D08",
"1  c #BD2909",
"2  c #B12C08",
"3  c #EC1F0A",
"4  c #F11D0A",
"5  c #FE1A0A",
"6  c #CC2609",
"7  c #C32909",
"8  c #D62309",
"9  c #E42009",
"0  c #ED230A",
"q  c #FF2C0A",
"w  c #FB230A",
"e  c #FB370A",
"r  c #834D07",
"t  c #854E08",
"y  c #884E08",
"u  c #9A4108",
"i  c #855107",
"p  c #8B5308",
"a  c #8B570B",
"s  c #915408",
"d  c #915B08",
"f  c #9D5D08",
"g  c #A15F08",
"h  c #976108",
"j  c #9C6508",
"k  c #A46108",
"l  c #AA6108",
"z  c #A46C08",
"x  c #AE6808",
"c  c #B76D09",
"v  c #BA6E09",
"b  c #AC7408",
"n  c #B07708",
"m  c #B47B08",
"M  c #BA7F09",
"N  c #82572A",
"B  c #83592E",
"V  c #875F35",
"C  c #8D663E",
"Z  c #8E683F",
"A  c #896034",
"S  c #B07F29",
"D  c #A0773C",
"F  c #FD560A",
"G  c #C87709",
"H  c #CD7A09",
"J  c #D57E09",
"K  c #FD7E0A",
"L  c #8E6841",
"P  c #936F49",
"I  c #93704A",
"U  c #987651",
"Y  c #9A7852",
"T  c #9E7E5D",
"R  c #BB810A",
"E  c #B3842F",
"W  c #C18609",
"Q  c #C68B09",
"!  c #CA8E09",
"~  c #D58209",
"^  c #DC8309",
"/  c #D78C09",
"(  c #CD9109",
")  c #D19509",
"_  c #D59809",
"`  c #DA9D09",
"'  c #C38D1D",
"]  c #E38609",
"[  c #EC8B0A",
"{  c #E18909",
"}  c #F28E0A",
"|  c #FE8E0A",
" . c #ED990A",
".. c #F5910A",
"X. c #FD940A",
"o. c #FE9C0A",
"O. c #F09E0A",
"+. c #DEA109",
"@. c #E1A309",
"#. c #ECAC0A",
"$. c #E6A80A",
"%. c #FEA30A",
"&. c #FDAE0A",
"*. c #F1A80A",
"=. c #EFB00A",
"-. c #F4B40A",
";. c #FDB40A",
":. c #FEBD0A",
">. c #F6B917",
",. c #FDBF13",
"<. c #C38E21",
"1. c #CF9C2A",
"2. c #CA9B36",
"3. c #F1BB2D",
"4. c #FEC118",
"5. c #FDC429",
"6. c #FDC425",
"7. c #F9C63D",
"8. c #BE9341",
"9. c #A68866",
"0. c #AE9479",
"q. c #B39A7E",
"w. c #C69E50",
"e. c #D3AF64",
"r. c #C4A97E",
"t. c #EEC356",
"y. c #FBD15C",
"u. c #FAD469",
"i. c #FAC373",
"p. c #FAD775",
"a. c #B9A28B",
"s. c #B9A185",
"d. c #CCAF88",
"f. c #C2AF9B",
"g. c #C3B09D",
"h. c #C7B6A5",
"j. c #C8B5A0",
"k. c #CCBDAD",
"l. c #F9DD8F",
"z. c #F9DE92",
"x. c #D0C0AD",
"c. c #D2C4B4",
"v. c #D5CABE",
"b. c #D4C7BB",
"n. c #F2DDAD",
"m. c #E9DAB6",
"M. c #F8E2A4",
"N. c #F7E5B4",
"B. c #F7E6B8",
"V. c #D9CFC3",
"C. c #E2DBD4",
"Z. c #F7EAC7",
"A. c #F6ECCF",
"S. c #E8E4DF",
"D. c #E7E1DC",
"F. c #F6EFDD",
"G. c #F5ECD6",
"H. c #EBE7E3",
"J. c #EDEBE8",
"K. c #F1EFEE",
"L. c #F6F0E1",
"P. c #F5F2ED",
"I. c #F5F5F5",
/* pixels */
"I.I.I.I.I.I.I.I.I.I.I.I.I.I.I.I.I.I.I.I.I.I.I.I.I.I.I.I.I.  I.I.I.I.I.I.I.I.I.I.I.I.I.I.I.I.I.I.I.I.",
"I.I.I.I.I.I.I.I.I.I.I.I.I.I.I.I.I.I.I.I.I.I.I.I.I.I.I.I.I.  I.I.I.I.I.I.I.I.I.I.I.I.I.I.I.I.I.I.I.I.",
"I.I.I.I.I.I.I.I.I.I.I.I.I.I.I.I.I.I.I.I.I.I.I.I.I.I.I.I.I.I.I.I.I.I.I.I.I.I.I.I.I.I.I.I.I.I.I.I.I.I.",
"I.I.I.I.I.I.I.I.I.I.I.I.I.I.I.I.I.I.I.I.I.I.I.I.I.I.I.I.I.I.I.I.I.I.I.I.I.I.I.I.I.I.I.I.I.I.I.I.I.I.",
"I.I.I.I.I.I.I.I.I.I.I.I.I.I.I.I.I.I.I.I.I.I.I.I.I.I.I.I.I.I.I.I.I.I.I.I.I.I.I.I.I.I.I.I.I.I.I.I.I.I.",
"I.I.I.I.I.I.I.I.I.I.I.I.I.I.I.I.I.I.I.I.I.I.I.I.I.I.I.I.I.I.I.I.I.I.I.I.I.I.I.I.I.I.I.I.I.I.I.I.I.I.",
"I.I.I.I.I.I.I.I.I.I.I.I.I.I.I.I.I.I.I.I.I.I.I.I.I.I.I.I.I.I.I.I.I.I.I.I.I.I.I.I.I.I.I.I.I.I.I.I.I.I.",
"I.I.I.I.I.I.I.I.I.I.I.I.I.I.I.I.I.I.I.I.I.I.I.I.I.I.I.I.I.I.I.I.I.I.I.I.I.I.I.I.I.I.I.I.I.I.I.I.I.I.",
"I.I.I.I.I.I.I.I.I.I.I.I.I.I.I.I.I.I.I.I.I.I.I.I.I.D.C % % h.I.I.I.I.I.I.I.I.I.I.I.I.I.I.I.I.I.I.I.I.",
"I.I.I.I.I.I.I.I.I.I.I.I.I.I.I.I.I.I.I.I.I.I.I.I.v.I I.z.u.1.= C.I.I.I.I.I.I.I.I.I.I.I.I.I.I.I.I.I.I.",
"I.I.I.I.I.I.I.I.I.I.I.I.I.I.I.I.I.I.I.I.I.I.I.I.* I.:.:.:.:.:.( = J.I.I.I.I.I.I.I.I.I.I.I.I.I.I.I.I.",
"I.I.I.I.I.I.I.I.I.I.I.I.I.I.I.I.I.I.I.I.I.I.I.I.- r.-.:.:.:.M @.:.b 0.P.I.I.I.I.I.I.I.I.I.I.I.I.I.I.",
"I.I.I.I.I.I.I.I.I.I.I.I.I.I.I.I.I.I.I.I.I.I.I.T n.o...f -.:.:.M . ) ` C I.I.I.I.I.I.I.I.I.I.I.I.I.I.",
"I.I.I.I.I.I.I.I.I.I.I.I.I.I.I.I.I.I.I.I.I.I.I 2.:.%.X.X.J b :.:.:.$ b $.U I.I.I.I.I.I.I.I.I.I.I.I.I.",
"I.I.I.I.I.I.I.I.I.I.I.I.I.I.I.I.I.I.I.I.I.Y M :.:.:.:.o.X.X.t +.:.:.` 4.M a.I.I.I.I.I.I.I.I.I.I.I.I.",
"I.I.I.I.I.I.I.I.I.I.I.I.I.I.I.I.I.I.I.I.N m :.:.:.#.W :.;.X.X.k W :.:.4.4.j C.I.I.I.I.I.I.I.I.I.I.I.",
"I.I.I.I.I.I.I.I.I.I.I.I.I.I.I.I.I.I.K.* Q :.:.:.W *.5 1 g :.X.X.k R :.:.:.:.@ I.I.I.I.I.I.I.I.I.I.I.",
"I.I.I.I.I.I.I.I.I.I.I.I.I.I.I.I.I.H.. +.:.:.:.:.` e 5 5 6 0 :.o.X.g b :.:.:.:.B I.I.I.I.I.I.I.I.I.I.",
"I.I.I.I.I.I.I.I.I.I.I.I.I.I.I.I.S.. ` :.:.:.:.+.:.5 5 5 3 1 o.:.X.X.s ( :.:.:.Q a.I.I.I.I.I.I.I.I.I.",
"I.I.I.I.I.I.I.I.I.I.I.I.I.I.I.H.. ( :.:.:.:.:.:.h 5 5 5 1 7 o.@.>.X.X.o :.:.:.:.+ K.I.I.I.I.I.I.I.I.",
"I.I.I.I.I.I.I.I.I.I.I.I.I.I.C.. R :.:.:.:.b :.:.j , 5 8 . w :.N.9.d.X.] # :.:.:._ N I.I.I.I.I.I.I.I.",
"I.I.I.I.I.I.I.I.I.I.I.I.I.v.. m :.:.:.:.:.z :.:.4.Q $ u F :.:.:.` 9.;.X.p ( :.:.:.. c.I.I.I.I.I.I.I.",
"I.I.I.I.I.I.I.I.I.I.I.I.g.. 1.:.:.:.:.:.-.@ :.:.:.:.:.:.:.:.:.:._ p.:.o.X.. :.:.:.b - I.I.I.I.I.I.I.",
"I.I.I.I.I.I.I.I.I.I.I.a.. e.:.:.:.:.:.:.:.:.:.:.:.:.:.:.:.:.;.| :.:.:.:.X.y ( :.:.-.. I.I.I.I.I.I.I.",
"I.I.I.I.I.I.I.I.I.I.x.. 8.4.:.:.! O O 7 %.:.:.:.$ :.:.:.! O.6 2 5 :.:.:.o.[ o :.:.:.. V.I.I.I.I.I.I.",
"I.I.I.I.I.I.I.I.I.V.. E :.4.:.m w 5 5 < 8 :.:.:.@ :.:.:.R q q  .8 %.:.-.=.X.@ ) :.:.. q.I.I.I.I.I.I.",
"I.I.I.I.I.I.I.I.v.@ E :.:.:.:.m 5 5 5 5 o %.:.4.i =.:.:.j 5 5 K 1 %.:.. -.o.H t :.:.# V I.I.I.I.I.I.",
"I.I.I.I.I.I.I.V.@ E 4.h :.:.:.i 5 5 5 5 ; &.:.:.:.:.:.:.@ 4 5 9 0 :.@.$ :.;.} o ;.a . * I.I.I.I.I.I.",
"I.I.I.I.I.I.j.. ' :.-.n :.:.:.@.> 5 5 5 @ :.:.@.@.:.:.:.:.p . > %.:.=.a :.:.:.+ @ *.r + I.I.I.I.I.I.",
"I.I.I.I.I.H.. ( :.:.:.. m :.:.:.=.# : o :.:.-.=.b r :.:.:.:.:.4.:.:.:.:.:.:.$.# / %.$ - I.I.I.I.I.I.",
"I.I.I.I.I.- a :.:.:.:.:.4.:.-.:.:.:.:.:.:.:.:.:.:.$.:.:.:.:.=.R x j h # X X . . ~ X.r L I.I.I.I.I.I.",
"I.I.I.I.I.. n._ -.-.$.j o # @ . ! :.:.:.d @ ;.:.:.:.( o x s # s s r t f c G ^ ..o.%.o c.I.I.I.I.I.I.",
"I.I.I.I.I.X ..X.X.} } X.X.X.X.X.r ( :.! } ..l :.:.i @ } X.X.X.X.X.X.X.X.X.X.X.| *.#.& I.I.I.I.I.I.I.",
"I.I.I.I.I.k.$ ^ ..X.X.X...^ f i i j :.t X.] c :.d z X.X.o.X.X.X.X.} ] ~ J n # . . + t.I.I.I.I.I.I.I.",
"I.I.I.I.I.I.i.X...[ ~ ~ H ^ [ } d @.6.$ J + &.:.. j p t t % - N Z U A p $ # d #.:.4.I.I.I.I.I.I.I.I.",
"I.I.I.I.I.I.I.I.I.I.I.I.P.P.I.I.a 3.7.q.G.t :.$.D M.z.B.I.I.I.I.I.I.I.A.y.6.5.u.L.I.I.I.I.I.I.I.I.I.",
"I.I.I.I.I.I.I.I.I.I.I.I.I.I.I.I.' i # 4.x.Q :.( g.I.I.I.I.I.I.I.I.I.I.I.I.I.I.I.I.I.I.I.I.I.I.I.I.I.",
"I.I.I.I.I.I.I.I.I.I.I.I.I.I.I.I.Z.-.4.4.a.+.:.z m.I.I.I.I.I.I.I.I.I.I.I.I.I.I.I.I.I.I.I.I.I.I.I.I.I.",
"I.I.I.I.I.I.I.I.I.I.I.I.I.I.I.I.I.N.p.I.c.n :.@ z.I.I.I.I.I.I.I.I.I.I.I.I.I.I.I.I.I.I.I.I.I.I.I.I.I.",
"I.I.I.I.I.I.I.I.I.I.I.I.I.I.I.I.I.I.I.I.F.i f R I.I.I.I.I.I.I.I.I.I.I.I.I.I.I.I.I.I.I.I.I.I.I.I.I.I.",
"I.I.I.I.I.I.I.I.I.I.I.I.I.I.I.I.I.I.I.I.I.M.7.F.I.I.I.I.I.I.I.I.I.I.I.I.I.I.I.I.I.I.I.I.I.I.I.I.I.I.",
"I.I.I.I.I.I.I.I.I.I.I.I.I.I.I.I.I.I.I.I.I.I.I.I.I.I.I.I.I.I.I.I.I.I.I.I.I.I.I.I.I.I.I.I.I.I.I.I.I.I.",
"I.I.I.I.I.I.I.I.I.I.I.I.I.I.I.I.I.I.I.I.I.I.I.I.I.I.I.I.I.I.I.I.I.I.I.I.I.I.I.I.I.I.I.I.I.I.I.I.I.I.",
"I.I.I.I.I.I.I.I.I.I.I.I.I.I.I.I.I.I.I.I.I.I.I.I.I.I.I.I.I.I.I.I.I.I.I.I.I.I.I.I.I.I.I.I.I.I.I.I.I.I.",
"I.I.I.I.I.I.I.I.I.I.I.I.I.I.I.I.I.I.I.I.I.I.I.I.I.I.I.I.I.I.I.I.I.I.I.I.I.I.I.I.I.I.I.I.I.I.I.I.I.I.",
"I.I.I.I.I.I.I.I.I.I.I.I.I.I.I.I.I.I.I.I.I.I.I.I.I.I.I.I.I.I.I.I.I.I.I.I.I.I.I.I.I.I.I.I.I.I.I.I.I.I.",
"I.I.I.I.I.I.I.I.I.I.I.I.I.I.I.I.I.I.I.I.I.I.I.I.I.I.I.I.I.I.I.I.I.I.I.I.I.I.I.I.I.I.I.I.I.I.I.I.I.I.",
"I.I.I.I.I.I.I.I.I.I.I.I.I.I.I.I.I.I.I.I.I.I.I.I.I.I.I.I.I.I.I.I.I.I.I.I.I.I.I.I.I.I.I.I.I.I.I.I.I.I.",
"I.I.I.I.I.I.I.I.I.I.I.I.I.I.I.I.I.I.I.I.I.I.I.I.I.I.I.I.I.I.I.I.I.I.I.I.I.I.I.I.I.I.I.I.I.I.I.I.I.I.",
"I.I.I.I.I.I.I.I.I.I.I.I.I.I.I.I.I.I.I.I.I.I.I.I.I.I.I.I.I.I.I.I.I.I.I.I.I.I.I.I.I.I.I.I.I.I.I.I.I.I."
};
