/* XPM */
static char *_05706f37083480def2fe46c5c291f7e93z6qcFN3KyIYli7[] = {
/* columns rows colors chars-per-pixel */
"50 50 58 1 ",
"  c None",
". c #120D00",
"X c #170C00",
"o c #160D00",
"O c #170D00",
"+ c #160E00",
"@ c #180D00",
"# c #1B0C00",
"$ c #1A0E00",
"% c #1B0E00",
"& c #1A0F00",
"* c #1D0D00",
"= c #1C0E00",
"- c #1E0E00",
"; c #1F1300",
": c #1F1400",
"> c #1F1600",
", c #210E00",
"< c #220E00",
"1 c #201500",
"2 c #201600",
"3 c #211600",
"4 c #221600",
"5 c #221700",
"6 c #231700",
"7 c #221601",
"8 c #231601",
"9 c #351C02",
"0 c #371A06",
"q c #391D03",
"w c #421C08",
"e c #422004",
"r c #7E2816",
"t c #8A350C",
"y c #9E3B0E",
"u c #912C1B",
"i c #942D1A",
"p c #952D1B",
"a c #982D1B",
"s c #A03A0F",
"d c #A33C0E",
"f c #A43C0F",
"g c #AF3F10",
"h c #A3301E",
"j c #AC3220",
"k c #AF3320",
"l c #B43222",
"z c #BC3524",
"x c #D53929",
"c c #E63D2D",
"v c #B4410F",
"b c #BC4311",
"n c #D54A13",
"m c #E64F16",
"M c #FE5617",
"N c #FF5617",
"B c #FE4132",
"V c #FF4132",
/* pixels */
"22222222222222222222>>2> 22222222222222222222222 2",
"2VVVVVVVVVVVVVVVVVVVVVV> rVVVVVVVVVVVVVVVVVVVVVu 2",
"2VVVVVVVVVVVVVVVVVVVVVV2 rVVVVVVVVVVVVVVVVVVVVVu 2",
"2VVVVVVVVVVVVVVVVVVVVVV> rVVVVVVVVVVVVVVVVVVVVVu 2",
"2VVVVVVVVVVVVVVVVVVVVVV> rVVVVVVVVVVVVVVVVVVVVVu 2",
"2VVVVVVVVVVVVVVVVVVVVVV2 rVVVVVVVVVVVVVVVVVVVVVu 2",
"2VVVVVVVVVVVVVVVVVVVVVV: rVVVVVVVVVVVVVVVVVVVVVu 2",
"2VVVVVVVVVVVVVVVVVVVVVV: rVVVVVVVVVVVVVVVVVVVVVu 2",
"2VVVVVVVVVVVVVVVVVVcVVV2 rVVVVVVVVVVVVVVVVVVVVVu 2",
"22828228288882288882262: 22228888228822288228882 2",
" <<<<-<<--<  <<<<<<<1<<<--<<<-<<<-<< <<-<<%-<<<<@-",
"2hhhhhhhhjp:;tdfffdfffdfffdddfffddd0 8jhhhhhhjajhj",
"2VVVVVVVVVc:;nMMMMMMMMMMMMMMMMMMMMMe 8VVVVVVVVVVcV",
"2VVVVVVVVVc:;nMMMMMMMMMMMMMMMMMMMMMe 8VVVVVVVVVVVV",
"2VVVVVVVVVc;;nMMMMMMMMMMMMMMMMMMMMMe 8VVVVVVVVVVVV",
"2VVVVVVVVVc;;nMMMMMMMMMMMMMMMMMMMMMe 8VVVVVVVVVVVV",
":VVVVVVVVVc:1nMMMMMMMMMMMMMMMMMMMMMe 8VVVVVVVVVVVV",
":VVVVVVVVVc:;nMMMMMMMMMMMMMMMMMMMMMe 8VVVVVVVVVVVV",
">VVVVVVVVVc:;nMMMMMMMMMMMMMMMMMMMMMe 8VVVVVVVVVVVV",
">zzzzzzzzzj;;sbbbbbbbbbbbbbbbbbbbbb0 8zzzzzzzzzzzz",
";%O;%%%;%;O  %%%%%%%%%;O.;O;%%%%%%%; %%%%%;O%%;OO%",
"::::22:>::2:>>>>2222::>> ::222:::8:>>>>>>:22::>> 8",
":VVVVVVVVVVVVVVVVVVVVVV> rVVVVVVVVVVVVVVVVVVVVVu >",
">VVVVVVVVVVVVVVVVVVVVVV> rVVVVVVVVVVVVVVVVVVVVVu :",
">VVVVVVVVVVVVVVVVVVVVVV> rVVVVVVVVVVVVVVVVVVVVVu 2",
">VVVVVVVVVVVVVVVVVVVVVV> rVVVVVVVVVVVVVVVVVVVVVu 2",
">VVVVVVVVVVVVVVVVVVVVVV> rVVVVVVVVVVVVVVVVVVVVVu 2",
"2VVVVVVVVVVVVVVVVVVVVVV> rVVVVVVVVVVVVVVVVVVVVVu 2",
":VVVVVVVVVVVVVVVVVVVVVV> rVVVVVVVVVVVVVVVVVVVVVu 2",
":VVVVVVVVVVVVVVVVVVVVVV: rVVVVVVVVVVVVVVVVVVVVVu 2",
"2788887788888>88>877888: 288888888888888888>8882 2",
"%;%%%%%;=%%  %-%%%%;%-%-%-%%%-%%=%%% %=%%=%%-%%-%;",
":vvvvvvvvvf:;alllllllllllllllllllll0 2vvvvvvvvvvvv",
"2MMMMMMMMMm;;xVVVVVVVVVVVVVVVVVVVVVw 6NNNNNNNNNNMM",
"2MMMMMMMMMm;;xVVVVVVVVVVVVVVVVVVVVVw 6MMNNNNNNNNMM",
"2MMMMMMMMMm1;xVVVVVVVVVVVVVVVVVVVVVw 6MMNNNNNNNNMM",
"2MMMMMMMMMm:;xVVVVVVVVVVVVVVVVVVVVVw 7MMNNNNNNNNMM",
"2MMMMMMMMMm:;xVVVVVVVVVVVVVVVVVVVVVw 6MMNNNNNNNNMM",
"2MMMMMMMMMm:;xVVVVVVVVVVVVVVVVVVVVVw 6MMNNNNNNNNMM",
"2MMMMMMMMMm:;xVVVVVVVVVcVVVVVVVVVVVw 6MMNNNNNNNNMM",
"1gggggggggs11pkkkkkkkkkkkkkkkkkkljj0 8ggvvggggggvg",
"XX@@XX@@X%@  @XXX%XXXXX%.XX@XXX%OOOO oooo.OOoXXX.O",
"122818282282822228822282 22822228888888888888888 2",
"2NMMMMMMMMMMMMMMMMMMMMM2 rVVVVVVVVVVVVVVcVVVVVVu :",
"2NNNMMMMMMMMMMMMMMMMMMM2 rVVVVVVVVVVVVVVVVVVVVVu 8",
"2NNNMMMMMMMMMMMMMMMMMMM2 rVVVVVVVVVVVVVVVVVVVVVu >",
"2NNNMMMMMMMMMMMMMMMMMMM2 rVVVVVVVVVVVVVVVVVVVVVu 8",
"2NNNMMMMMMMMMMMMMMMMMMM2 rVVVVVVVVVVVVVVVVVVVVVu 8",
"2NNNNNNNNNNNNNNNNNNNNNN: rVVVVVVVVVVVVVVVVVVVVVu >",
"2NNNNNNNNNNNNNNNNNNNNNN2 rVVVVVVVVVVVVVVVVVVVVVu >"
};
