/* XPM */
static char *_05b8a98de8949b8d84c5c8b00eb096bmFkmb5n5JaKseq6G[] = {
/* columns rows colors chars-per-pixel */
"50 50 256 2 ",
"   c #3C2E0B",
".  c #7B1900",
"X  c #73060A",
"o  c #5B2901",
"O  c #4C2D08",
"+  c #652501",
"@  c #6C2402",
"#  c #692803",
"$  c #732300",
"%  c #7C2501",
"&  c #7C2C03",
"*  c #782A09",
"=  c #7B3306",
"-  c #782915",
";  c #773914",
":  c #682F09",
">  c #733628",
",  c #6D2622",
"<  c #531D15",
"1  c #5A5C3B",
"2  c #685837",
"3  c #745232",
"4  c #64643E",
"5  c #765253",
"6  c #776A4E",
"7  c #6D756C",
"8  c #8B0503",
"9  c #990602",
"0  c #8A1701",
"q  c #961401",
"w  c #920A17",
"e  c #A80703",
"r  c #BB0201",
"t  c #B60604",
"y  c #A71608",
"u  c #B81401",
"i  c #A80917",
"p  c #BD0815",
"a  c #A9161A",
"s  c #BA1517",
"d  c #832C02",
"f  c #8B2C01",
"g  c #872807",
"h  c #982A05",
"j  c #853102",
"k  c #8B3203",
"l  c #8A3709",
"z  c #973809",
"x  c #892B16",
"c  c #962A17",
"v  c #8B3815",
"b  c #953C12",
"n  c #973915",
"m  c #A12A04",
"M  c #AC3014",
"N  c #8C3925",
"B  c #B42A2B",
"V  c #A81525",
"C  c #C40100",
"Z  c #CA0607",
"A  c #D30102",
"S  c #DC0101",
"D  c #D7060B",
"F  c #CB1707",
"G  c #D81309",
"H  c #C80817",
"J  c #D60815",
"K  c #CA1516",
"L  c #DA1415",
"P  c #E50202",
"I  c #EB0203",
"U  c #E5080A",
"Y  c #E90C14",
"T  c #E61716",
"R  c #FE171B",
"E  c #F10F0E",
"W  c #D7251B",
"Q  c #D01626",
"!  c #CF272B",
"~  c #EA1C20",
"^  c #98440B",
"/  c #994113",
"(  c #9B4219",
")  c #AC4516",
"_  c #855B2A",
"`  c #845B3A",
"'  c #AE512C",
"]  c #876839",
"[  c #926D31",
"{  c #AA722B",
"}  c #B16C30",
"|  c #BA721D",
" . c #C9562D",
".. c #CD7236",
"X. c #E96F38",
"o. c #CF4C18",
"O. c #893D47",
"+. c #C63B40",
"@. c #B5494B",
"#. c #8F754B",
"$. c #A57343",
"%. c #917862",
"&. c #B37370",
"*. c #88475D",
"=. c #CB5052",
"-. c #CE6F4D",
";. c #F07F54",
":. c #CF716E",
">. c #EB7170",
",. c #E35963",
"<. c #7C8673",
"1. c #998754",
"2. c #A58D59",
"3. c #9C966B",
"4. c #979375",
"5. c #8D8872",
"6. c #A48A66",
"7. c #A69A68",
"8. c #AA9878",
"9. c #B3996E",
"0. c #B7AB73",
"q. c #DA8652",
"w. c #CC8C50",
"e. c #E18E5A",
"r. c #DBA55C",
"t. c #FDA65C",
"y. c #F39374",
"u. c #D7A66A",
"i. c #D1B379",
"p. c #E6AA68",
"a. c #E8A775",
"s. c #F9AA77",
"d. c #F2B574",
"f. c #DDCA75",
"g. c #F9C96D",
"h. c #FDD469",
"j. c #FECC7D",
"k. c #F9C877",
"l. c #FDD37B",
"z. c #FEDD7D",
"x. c #F6D676",
"c. c #EACA79",
"v. c #FDE178",
"b. c #F7C35D",
"n. c #B86989",
"m. c #878C84",
"M. c #8F9892",
"N. c #99A88F",
"B. c #B4AE91",
"V. c #99ABA6",
"C. c #ACB4B3",
"Z. c #989893",
"A. c #F68E89",
"S. c #DBB887",
"D. c #CCB88C",
"F. c #E2B986",
"G. c #F7B091",
"H. c #D5B9AE",
"J. c #F7B1AD",
"K. c #CB9DA0",
"L. c #B8C9B9",
"P. c #B1CCB9",
"I. c #CEC288",
"U. c #EACA84",
"Y. c #F9C984",
"T. c #EBD687",
"R. c #FED283",
"E. c #FEDD84",
"W. c #FED48B",
"Q. c #FEDD8B",
"!. c #F4D98B",
"~. c #FEDC93",
"^. c #FEDB9B",
"/. c #FAD695",
"(. c #E9D297",
"). c #FDE285",
"_. c #FDE38C",
"`. c #F7E68B",
"'. c #EBE597",
"]. c #FEE492",
"[. c #FCEA94",
"{. c #FEE49C",
"}. c #FEEC9C",
"|. c #F4E797",
" X c #FEF19C",
".X c #F6F199",
"XX c #ECE08C",
"oX c #C7C9B9",
"OX c #CCD3BB",
"+X c #FEDBA2",
"@X c #F4CCB6",
"#X c #FEE3A4",
"$X c #FEECA2",
"%X c #FFE5AD",
"&X c #FEEDAB",
"*X c #F4E5A7",
"=X c #FDF2A4",
"-X c #F6F3AB",
";X c #FDF3AB",
":X c #FDFBAD",
">X c #F5F7A7",
",X c #FDE4B2",
"<X c #FEECB3",
"1X c #FFEBBA",
"2X c #FFE7B9",
"3X c #FFF4B4",
"4X c #FDFCB3",
"5X c #FEF4BC",
"6X c #FEFCBA",
"7X c #F3FBB9",
"8X c #EAEEB6",
"9X c #DEEBB5",
"0X c #93CED4",
"qX c #A9D8DB",
"wX c #B8D7DB",
"eX c #B2D1C8",
"rX c #B3DBE4",
"tX c #A3E3E7",
"yX c #B6E6F2",
"uX c #A5DCE3",
"iX c #D0D6CC",
"pX c #FFDAD6",
"aX c #F2D4CA",
"sX c #D8E4C8",
"dX c #CFE3DA",
"fX c #FCE9C7",
"gX c #FDFDCC",
"hX c #FAF8C7",
"jX c #FFECDC",
"kX c #FEE8D8",
"lX c #FEFDDB",
"zX c #FBF9D7",
"xX c #E6EAD4",
"cX c #CFDBE3",
"vX c #FFDFE4",
"bX c #C9E3EB",
"nX c #FEE5E2",
"mX c #FFEDE4",
"MX c #FAEBEA",
"NX c #E9F7EB",
"BX c #FEF2E4",
"VX c #FEFDE4",
"CX c #FEF3EC",
"ZX c #FEFDEC",
"AX c #F4FBE9",
"SX c #FFEDF6",
"DX c #EDFEFD",
"FX c #E9FCF5",
"GX c #FEF4F4",
"HX c #F3FDF4",
"JX c #FDFCF4",
"KX c #FEF4FD",
"LX c #F4FFFD",
"PX c #FDFEFD",
"IX c #F6F5F7",
"UX c #ECEFEF",
/* pixels */
"DXDXHXKXSXnX,.Q G U G Z u s w w n.KXKXPXBXBXkX>.Q Q A.vXCXZXAXJXKXKXPXPXPXPXPXJXJXJXPXPXPXLXLXLXPXPX",
"LXLXLXPXCXvX=.t F G F u y y w X *.KXIXCXGXmX,.B H H 8 :.kXmXJXPXPXPXKXKXPXIXJXJXPXJXPXPXPXLXLXLXPXPX",
"KXPXLXLXHXmX@.B r e q q 0 X X X 5 PXMXpXnX=.H J J J Q a =.aXCXBXHXLXPXPXPXJXPXPXPXPXJXPXPXPXPXPXPXPX",
"KXPXLXDXHXZXJ.y.y.;.;.q.w.-.-.:.OXBXCXpX+.H D E D U H s V =.aXCXHXLXPXJXPXPXPXPXPXPXLXPXPXPXPXPXPXPX",
"KXPXLXLXLXJXBXfXfX,X#X^.^./.+X2XlXkX@X=.Y D R S R A Y C K B V aXCXCXUXJXPXPXDXLXLXPXPXPXPXPXPXJXPXPX",
"JXPXLXLXLXJXZXVX2X+X^.Q.W.Y.!.+XgX@XB H Y E A A r S S A K K s B J.nXZXZXHXLXLXDXLXLXPXPXPXPXPXJXPXPX",
"LXLXPXPXPXHXZXlX7X3X}._.Q.Q.Q.!.G.q ! D P S Z F y e u Z D J J t B J.mXZXAXLXDXFXLXPXPXPXPXPXJXPXPXPX",
"DXDXLXPXPXPXJXzXhX-X}.E.R.R.k.t.M J T A Y G e 0 t.s.q e L A Y J e ! A.pXZXAXNXDXLXPXPXKXPXPXPXHXPXPX",
"HXHXLXPXPXPXJXVXhX4X.Xx.E.W.X.F Y U U L F 9 z d.~.5Xs.m e G D D D J i >.CXZXNXLXIXLXPXPXPXJXHXLXPXPX",
"HXJXPXPXPXPXJXzX9X4X=X].E.X.u G P E U K q b Y.{.$Xf.{.G.M 9 K A S U J w >.BXmXCXPXPXPXPXPXPXJXPXPXPX",
"JXPXKXKXKXPXJXzXgX(.-X/.o.F E I I Y L 9 ) /.=X.X'.$X{.^.Y.' 8 u S A J K 8 =.kXSXGXJXJXPXPXPXPXPXPXPX",
"PXKXKXKXKXPXZXzX7X}.G.X.F G I I E C 9  .+X$X'.'.|.}.|./.{.Y.} 8 t T C K Q 9 =.pXCXCXHXLXLXPXPXPXPXPX",
"PXIXKXKXKXGXVXzXhXY.X.r E E A ~ t q } +X4X!.{.|.`.XX}.|.Y.$X/...q u F t H K e =.aXvXGXCXIXJXPXKXPXPX",
"DXLXPXPXKXGXZXjXJ. .F E S E ~ e 0 q.5X{.T.:X}.~.!.=X`.x._.Q.l.Q...q 9 F r C J i =.J.MXGXSXPXPXPXPXPX",
"DXLXLXIXGXJXkXJ.B r P E I D t q w.;X}.$X;XT.|.]. X).R._.E.x.l._./.q.. 9 W C Z H 9 +.J.MXKXJXLXLXPXPX",
"LXDXLXFXJXCXG.B K E I U T t q y.hX'.=X}.|. X[.Q.Q.Q._.).Q.).z.l.R./.y.q 9 G C H Q i V J.SXJXUXDXPXPX",
"PXDXPXZXfXG.B F Y U E D 9 M s.5X3X-X&X$X}.{.].].].Q.Q.Q.Q.E.E.E./.Y./.t.y 8 F p H H p Q A.kXAXNXPXJX",
"KXMXBXlXA.a F Y Y Y J y z G.5X$X;X-X&X$X}.{._.].].].~.`.).E.z.E.!.|.j.g.t.) X K H H J t a y.kXVXMXIX",
"nXMXkX:.y Z I I Y D 9 n +X5X=X-X-X-X=X$X}.[.].].].].Q.Q.E.E.z.E.`.x.h.v.z.t.) e s Z J D r a :.vXJXPX",
"nXjX,.K D P R I G 9 ' 1X5X6X>X=X=X=X=X}.[.[.].[.{.`._._.).).z.v.`.f.x.v.b.z.d.' 9 r Z A C t i =.vXPX",
"fX' ! F E R P G e  .,XhX3X|.6X|..X.X X X[.[.[.[.].|._.).E.E.z.z.x.v.v.h.h.h.j.k. .q e A C D H i :.@X",
"-.K r U E P Z e -.1X3X&X;X6XT.6X}. X X X[.[.|.`.[.`.).E.E.).z.E.z.v.x.h.z.h.g.).R. .y e Z D J Q 8 @.",
"L K T U U r e q.5X;X;X-X6X|..X X X X[. X.X.X[.`.[.).).E.Q.R.E.R.R.l.k.h.g.z.z.d.j.j.-.0 e H p H s s ",
"! W J T t 9 s.hX*X4X7X>X=X4X$X}.}.}. X}.}.}.|.[.]._.Q.E.Q.Q.Q.~.R.j.W.R.g.g.l.x.g.x.R.;.h 9 i V V i ",
",.Q i 8 c G.fXhX9X7X7X4X4X;X%X;X;X$X{.=X=X$X=X).].)._.j.{./.^.+X/.#X~.^.~.~.k.x.g.x.R.%XG.N X w X n.",
"vX:.@.:.J.BXlX9XhX7X'.*X%X^.+X(.(.*X^.>X*X(.#X=XQ.Q.).w.{ [ _ #._ ] 3 _ _ _ [ d.z.f.i.<XkXJ.&.O.K.MX",
"GXnXSXGXnXBXzXlXgXI.6 1.$.] 6.#.] 2.#.6 #.6 7.[.{.Q.}.[ o 3 3 2 4 1 1 2 3 : O r.l.R.U.,XlXBXGXSXnXPX",
"LXLXLXAXJXJXVX8XgXf.#.(.(.D.(.4.%.D.B.B.I.1.7.;X].j.$X{ _ ,XkXxXL.P.eXL.oX%.o d.l.R.U.,XlXZXGXKXPXJX",
"HXLXLXPXJXBXjXlXfXS.1.zXzXiXcXV.m.iXiXoX9X4.7.=X=XR. X[ 3 fXxXeXwXqXqX0XwX5.O u.Y.j.U.2XVXZXCXMXJXCX",
"PXPXUXPXJXZXjXzXzXS.1.hXsXiXcXV.M.iXC.C.P.4.3.:XQ.R.=X[ 2 zXUXcXuXtXtX0XwX5.O d.j.R.U.2XVXAXJXPXJXMX",
"KXJXHXFXHXAXVXfXfXF.6.zXxXiXbXC.M.bXwXeXiX4.3.$X].Q.}.$.2 iXbXqXuXtXuXuXqX<.  u.Y.j.F.,XVXHXNXUXPXPX",
"KXPXHXFXHXAXlXfXfXF.#.H.B.C.C.V.7 C.V.M.V.5.7.<X$X{.{.[ 5 iXbXyXtXtX0X0XrXm.O a.j.j.U.,XVXHXLXPXPXPX",
"JXPXPXPXPXZXlXfXhXi.` 9.%.%.m.7 7 5.7 <.5.6 6.,X#X#X^.[ 3 xXcXbXuXuX0X0XeX5.  i.W.c.U.,XBXJXPXPXPXPX",
"JXJXPXPXJXZXzX5X1XF.6.pXaXiXsXV.Z.oXL.P.oX4.B.2X/.{.$X$.3 @XiXiXwXbXL.L.oX5.O S.W.g.Y.,XVXJXHXPXPXPX",
"ZXJXPXLXPXZXzXhXhXI.3.fXaXiXsXN.m.iXeXP.oXZ.9.%X{.}.[.{ # $.` 6 5 5 3 3 5 ; + a.R.g.Y.+XZXJXPXLXPXPX",
"AXAXLXLXFXAXgX7X6Xi.#.sXOXOXdXN.<.iXeXC.L.4.6.%X~._._.| $ l : : , , - @ @ * $ s.j.g.Y.,XVXPXLXLXPXPX",
"ZXAXHXHXHXZXgX7X7XI.3.fXzXsXxXB.M.iXiXL.OX8.9.5XQ.v.)...k ^ l v x x z d % % & r.l.g.U.,XZXLXDXDXPXPX",
"ZXZXHXPXJXZXgX7X7X0.#.3.4.5.4.6 6 4.<.<.3.6 2.{._.).v.| k k = & g 0 f f d = = p.l.g.c.<XZXPXDXDXPXPX",
"ZXJXPXPXJXZXgX7X6X'.i.8.9.B.B.i.9.i.3.0.0.0.c.=X`.).).{ k l b v l g d $ @ # # p.l.g.c.,XZXPXLXLXPXPX",
"JXJXPXPXPXZXgX6X:X-XhX1XhXgX,X3X;X:X=X:X:X[.}.).`.[._.{ j l N x g d j = = = # p.x.g.U.,XVXPXPXPXPXPX",
"KXPXPXKXPXBXlX7X:X:X4X3X<X<X&X$X{._.[.[.`.)._.).`.XX=X{ % N - x x g k & @ & @ p.j.k.k.,XkXKXMXPXPXPX",
"PXPXUXPXPXZXlX-X:X:X:X4X;X;X=X X[. X.X.X.X[._._.`.!.$X} g n N c x 0 f & % * $ a.j.k.Y.,XBXGXCXPXPXPX",
"DXDXDXPXPXJXlXhX:X>X>X>X=X=X X[.}.$X.X.X[._._.Q.[.[.#X} f c z h c x g g * * @ a.W.k.U.%XzXZXAXHXJXPX",
"FXDXDXPXIXCXxX6X4X>X:X:X;X;X X X%X-X-X$X X[.].{._.~.~.} h m m h x c g % - @ @ a.W.k.U.<XlXZXHXJXPXPX",
"DXFXFXPXKXKXlXzX6X6X6X5X5X5X4X;X,X1X5X3X&X$X#X{.$X&X#X-.h m m m 0 v & & * - * i.W.k.T.5XVXzXHXNXPXPX",
"HXHXPXKXH.H.G.S.F.f.S.S.S.F.F.F.S.S.S.i.a.a.s.a.u.u.p._ f g h k % x & = $ * - -.d.r.u.S.H.oXAXHXPXPX",
"VXZXJXH., , # # + + o + : # @ @ + + + + $ * $ $ : o ; + . . k d k j & j g g f n f % & * > 5 aXHXJXPX",
"VXZXIXJ.< - - $ & & * : - - * d & & = j j f k j = : ; = v l v j l j j z l M h h z h / n > > J.CXPXPX",
"ZXJXCX%.- - x g d & * l * x d d l d k j k k k k l l l l l v l b b l z l z z z z b k z z n ( 6.JXPXPX",
"HXJXCX%.- v v b b b b v v / b z b b b / / / / / / / / / / / / / ( ( ^ ^ ^ ^ ( ( ( / ^ z b v %.ZXPXPX"
};
