/* XPM */
static char *cc01a94379e0445d8b80f059a36a46b1q7T6dBUTU0e4KSBL[] = {
/* columns rows colors chars-per-pixel */
"50 50 170 2 ",
"   c None",
".  c #020201",
"X  c #0B0603",
"o  c #040B00",
"O  c #0B0A03",
"+  c #0D0C0A",
"@  c #100702",
"#  c #130A04",
"$  c #1E0D02",
"%  c #130F0C",
"&  c #051300",
"*  c #0C1304",
"=  c #061F00",
"-  c #091C01",
";  c #131E00",
":  c #15110F",
">  c #131A0D",
",  c #151413",
"<  c #1A1514",
"1  c #1E1917",
"2  c #1B1A19",
"3  c #200E02",
"4  c #28090F",
"5  c #231103",
"6  c #28160A",
"7  c #331A05",
"8  c #3C1F07",
"9  c #221D1C",
"0  c #062501",
"q  c #0A2301",
"w  c #0C2B02",
"e  c #0D3701",
"r  c #0C3B00",
"t  c #113300",
"y  c #183701",
"u  c #113B00",
"i  c #3D2107",
"p  c #27221B",
"a  c #35281A",
"s  c #392416",
"d  c #272221",
"f  c #2B2623",
"g  c #2E292A",
"h  c #312B25",
"j  c #352C28",
"k  c #3C3635",
"l  c #363233",
"z  c #58101D",
"x  c #442306",
"c  c #492605",
"v  c #4D2907",
"b  c #452208",
"n  c #4A2408",
"m  c #542D0B",
"M  c #5C2F09",
"N  c #522C07",
"B  c #573207",
"V  c #5B3209",
"C  c #5C3206",
"Z  c #472F1D",
"A  c #442A17",
"S  c #52371F",
"D  c #663805",
"F  c #63360A",
"G  c #6C3C09",
"H  c #65390A",
"J  c #651327",
"K  c #4C3B29",
"L  c #433D3D",
"P  c #0D4300",
"I  c #0E4D00",
"U  c #064301",
"Y  c #124401",
"T  c #144B01",
"R  c #1C4502",
"E  c #0F5B01",
"W  c #145400",
"Q  c #1A5301",
"!  c #135B01",
"~  c #1C5F00",
"^  c #2A5611",
"/  c #0B6100",
"(  c #0D6A00",
")  c #136400",
"_  c #1A6201",
"`  c #166B00",
"'  c #1C6C01",
"]  c #137100",
"[  c #1C7301",
"{  c #167D01",
"}  c #1D7B00",
"|  c #286507",
" . c #206D01",
".. c #227600",
"X. c #237C00",
"o. c #77400A",
"O. c #7B460A",
"+. c #7E490D",
"@. c #7B4307",
"#. c #4F4A4F",
"$. c #5B5652",
"%. c #605E56",
"&. c #63636B",
"*. c #77716C",
"=. c #7B7572",
"-. c #9C1B38",
";. c #834B0B",
":. c #854A0A",
">. c #8C510C",
",. c #93550C",
"<. c #9B5B0C",
"1. c #94570A",
"2. c #A25D0E",
"3. c #A3600F",
"4. c #AB660D",
"5. c #AF690F",
"6. c #B0670D",
"7. c #B36B0D",
"8. c #B96E0F",
"9. c #BE720E",
"0. c #A76012",
"q. c #AC6610",
"w. c #B26910",
"e. c #BF7313",
"r. c #C3740D",
"t. c #C47407",
"y. c #D17E0D",
"u. c #CB7B11",
"i. c #C72147",
"p. c #DF284B",
"a. c #DE274B",
"s. c #E4254C",
"d. c #E3294D",
"f. c #0F8300",
"g. c #168600",
"h. c #1D8400",
"j. c #168E00",
"k. c #1B8D00",
"l. c #169000",
"z. c #1D9200",
"x. c #238500",
"c. c #238D00",
"v. c #239400",
"b. c #289600",
"n. c #DA870F",
"m. c #D48211",
"M. c #DA8511",
"N. c #E38A0D",
"B. c #E58C11",
"V. c #ED9213",
"C. c #F29612",
"Z. c #F69912",
"A. c #FA9C12",
"S. c #9D857D",
"D. c #A09993",
"F. c #A1A4A2",
"G. c #BEBAB7",
"H. c #B8B7BB",
"J. c #B4B3B8",
"K. c #BDBDC0",
"L. c #BEC2C6",
"P. c #C7C7C8",
"I. c #CCCED1",
"U. c #CFD1D5",
"Y. c #D0D0D2",
"T. c #D5D6D8",
"R. c #DDDDDD",
"E. c #DDDEE0",
"W. c #E3E4E4",
"Q. c #E7E8E8",
/* pixels */
"                                                                                                    ",
"                                                                                                    ",
"                                                                                                    ",
"                                                                                                    ",
"                                                                                                    ",
"                                                                                                    ",
"                                                                                                    ",
"                                                                                                    ",
"                                                                                                    ",
"                                              f < + O O % a K                                       ",
"                                      f O & I ] g.k.k.j.{ ! 0 . % h                                 ",
"                                  2 o E z.z.v.z.z.v.z.v.z.z.v.z.) . X                               ",
"                                X I z.v.z.v.z.v.v.z.v.v.v.z.v.z.v.v.r .                             ",
"                              o h.v.[ * * [ v.v.v.v.v.v.v.v.v.v._ t R ` .                           ",
"                            X h.v.| +.A.A.,.W v.v.b.v.v.v.v.v.O 3.n.<.O ! .                         ",
"                          : ! v.v.i M.8 r.A.6.u ! [ X...' Q i A.:.# c :.} & 2                       ",
"    p p 9 S.              . b.b._ B.#.Q.U.m A.o.B.5.w.u.C.0.A.A R.W.&.y.P ` .                       ",
"O B m.A.A.n.N <         d P c.y 8 t.W.Q.T.T.4.Z.M.A.A.A.A.A.6.U.D.R.W.D v H X 9                     ",
"A.A.A.A.A.A.A.3.,       , $ q.A.2.:.Q.R.. P.K A.A.A.A.A.A.A.s G.g k W.i 1.A.A.8.X                   ",
"A.A.A.A.A.A.A.A.5     5.Z.A.A.A.Z.1.W.p . L =.A.A.A.A.A.A.A.L 1 . % R.V A.A.4.A.Z.X                 ",
"A.A.A.n.<.n 2.A.6.  % A.A.A.V.A.Z.N.K.h . l *.A.A.A.A.A.A.A.j g . l K.r.A.A.x 8.Z..                 ",
"A.A.A.A.A.A.C.G V +.:.m.C.F Z.A.A.A.Z I.< J.S V.6.O.V v G 4.H H.g U.s Z.A.A.c 7 1.2                 ",
"Z.A.A.A.A.A.A.@.m.r.M.$ ;.A.A.A.r.m b f F.%.X t ' X.x.c.X.' t * $.6 x M 2.Z.Z.M..                   ",
"C u.V.Z.C.B.w.3 r.V q.A.A.Z.A.A.C.B.u.+.u c.b.b.b.b.b.b.v.b.v.b.c.w X # 7 <.C.A.<.+                 ",
"2 > X . . 7 >.>.m.6 A.Z.8.c ; W h.v.^ v.b.b.b.v.b.b.b.v.v.v.v.v.v.v.x.u c._ & 7 B.q.X               ",
"      $ V.A.A.V.3.i O.Y c.v.b.b.b.b.b.b.v.b.v.b.b.v.v.b.v.v.v.v.v.v.v.c.v.v.v.c.o m +               ",
"    @ A.Z.Z.Z.M A.$ * b.v.v.b.b.v.b.b.v.v.v.b.b.v.b.b.v.b.v.v.v.v.v.v.v.v.v.v.v.[ .                 ",
"  + u.Z.A.;.F C.A.G _ v.v.v.v.b.b.v.v.v.b.v.v.v.c.v.v.v.v.v.v.c.c.v.v.v.v.v.c.v.v..                 ",
"  X A.Z.;.b V.A.Z.X c.v.v.v.v.v.v.v.v.v.v.v.v.v.v.v.v.v.v.v.v.v.v.v.z.k.k.v.v.c.v.-                 ",
"  @ A.A.r.Z.Z.A.m.. v.v.v.v.v.v.v.v.v.v.v.v.v.v.v.v.z.v.v.v.c.v.v.v.v.v.v.z.v.v.v.Y 2               ",
"  @ A.A.Z.A.A.>.X + v.v.v.v.` e Y v.v.v.v.v.v.v.v.v.v.v.v.v.v.z.v.k.z.v.v. .. o Y W <               ",
"  X A.Z.A.0.,     , c.v.v.T h.c.o T v.v.v.v.z.v.z.v.v.v.v.z.v.v.v.z.v.v.Y . ` v.c.u                 ",
"  + y.A.M.:         W z.z.z.v.v.z.T . Q v.v.v.v.v.v.z.z.v.v.z.v.z.v.T . I k.v.v.k.o                 ",
"    5 Z.7           X h.v.v.z.z.v.v.) . . q ' z.z.v.z.v.z.z.z.} q . o z.z.z.k.k.~ ,                 ",
"    , 7 +             . ` v.z.v.v.z.z.I . . . . . o q w - o . . . & l.z.z.k.l.' +                   ",
"                        + q h.z.z.z.z.z.e . . . . . . . . . . . 0 z.k.l.k.k.T +                     ",
"                            X w h.z.z.z.z.r J d.a.z d.a.-.. . E l.l.l.k.{ o <                       ",
"                                + - [ Y z.z.( 4 i.s.s.s.-.- g.j.! j.{ - ,                           ",
"                                    2 . 0 k.l.l./ 0 - U f.j.j.q r +                                 ",
"                                          + ! j.l.l.l.l.j.P                                         ",
"                                              2 > w q >                                             ",
"                                                                                                    ",
"                                                                                                    ",
"                                                                                                    ",
"                                                                                                    ",
"                                                                                                    ",
"                                                                                                    ",
"                                                                                                    ",
"                                                                                                    ",
"                                                                                                    "
};
