/* XPM */
static char *_8a02e4a7bee44daf73b291a0d99bf60EsVjdSIMvFm919wH[] = {
/* columns rows colors chars-per-pixel */
"50 50 2 1 ",
"  c #A9ADB0",
". c #AAAEB1",
/* pixels */
"                                                  ",
"                                                  ",
"                                                  ",
"                                                  ",
"                                                  ",
"                                                  ",
"                                                  ",
"                                                  ",
"                          ......                  ",
"                        . ......                  ",
"                        ........                  ",
"                        ........                  ",
"                        ........                  ",
"                        ........                  ",
"                        ........                  ",
"                        ........                  ",
"                        ........                  ",
"                        ........                  ",
"                        ........                  ",
"                        ........                  ",
"                        ........                  ",
"                        ........                  ",
"                        ........                  ",
"                        ........                  ",
"................                        ........  ",
"................                        ........  ",
"................                        ........  ",
"................                        ........  ",
"................                        ........  ",
"................                        ........  ",
"................                        ........  ",
"................                        ........  ",
"        ........                                  ",
"        ........                                  ",
"        ........                                  ",
"        ........                                  ",
"        ........                                  ",
"        ........                                  ",
"        ........                                  ",
"        ........                                  ",
"                                                ..",
"                                                ..",
"                                                ..",
"                                                ..",
"                                                ..",
"                                                ..",
"                                                ..",
"                                                ..",
"                ........                          ",
"                ........                          "
};
